<?xml version="1.0" encoding="utf-8"?>
<!-- Generator: Adobe Illustrator 23.0.0, SVG Export Plug-In . SVG Version: 6.00 Build 0)  -->
<svg version="1.1" id="Слой_1" xmlns="http://www.w3.org/2000/svg" xmlns:xlink="http://www.w3.org/1999/xlink" x="0px" y="0px"
	 viewBox="0 0 1204 193" style="enable-background:new 0 0 1204 193;" xml:space="preserve">
<g transform="translate(0.000000,193.000000) scale(0.100000,-0.100000)">
	<path d="M5230,1844c-70-19-125-51-179-105c-44-45-94-131-105-185c-6-27-14-32-67-49c-111-33-214-132-254-245c-9-25-19-80-22-122
		l-6-78h172h171V960V860h-170h-170v-59c0-75,29-170,72-233c43-65,131-130,206-154l60-19l17-59c49-162,210-276,390-276h55v165v165
		h100h100V225V60h55c83,0,147,18,217,59c79,48,151,138,175,220c17,57,18,59,65,71c62,16,156,76,196,128c56,70,84,144,90,238l5,84
		h-167h-166v100v100h165h165v59c0,114-59,242-145,313c-37,31-120,73-161,82c-27,6-32,13-43,57c-18,68-82,160-142,205
		c-68,50-140,75-231,81l-78,6v-167v-166h-100h-100v165v165l-57-1C5311,1859,5260,1852,5230,1844z M5270,1620v-90h-95
		c-109,0-110,2-65,73c30,48,109,107,142,107C5268,1710,5270,1700,5270,1620z M5813,1680c45-28,107-108,107-137c0-10-24-13-95-13h-95
		v90C5730,1725,5736,1729,5813,1680z M5268,1293l-3-98l-97-3l-98-3v101v100h100h101L5268,1293z M5600,1225v-165h165h165V960V860
		h-165h-165V695V530h-100h-100v165v165h-165h-165v100v100h165h165v165v165h100h100V1225z M5930,1290v-101l-97,3l-98,3l-3,98l-3,97
		h101h100V1290z M4930,1285v-95h-90c-80,0-90,2-90,18c0,33,59,112,107,142C4928,1395,4930,1394,4930,1285z M6153,1342
		c43-29,70-64,92-116l15-36h-95h-95v96c0,94,0,95,23,89C6105,1371,6132,1356,6153,1342z M4930,635c0-110-2-111-75-63
		c-49,32-105,107-105,140c0,16,10,18,90,18h90V635z M5268,628l3-98h-101h-100v100v101l98-3l97-3L5268,628z M5930,630V530h-100h-100
		v93c0,52,3,97,7,100c3,4,48,7,100,7h93V630z M6250,715c0-24-35-87-62-111c-30-28-89-64-105-64c-10,0-13,26-13,95v95h90
		C6234,730,6250,727,6250,715z M5270,300c0-101-3-104-68-71c-42,22-70,50-101,101c-34,58-31,60,74,60h95V300z M5920,378
		c0-17-36-76-64-106c-25-28-111-74-120-65c-3,4-6,46-6,95v88h95C5894,390,5920,387,5920,378z"/>
</g>
<g>
	<path d="M68.9,80.3h-40v33H69v-10.1h21.1V130H7.7V63.6h82.5V87H68.9V80.3z"/>
	<path d="M151.3,84.9h-23.5l13.9-21.3h18.5l43.3,66.4h-24.5l-12.5-19.7h-32.9L121.4,130H98.6l22.7-34.9h36.5L151.3,84.9z"/>
	<path d="M266,80.3h-36.5v8.4h59.2V130H209v-16.7h59.2v-9.8H209V63.6h77.6v20.2H266V80.3z"/>
	<path d="M326.6,63.6v25.1h47.6V63.6h22.5V130h-22.5v-26.5h-47.6V130h-22.5V63.6H326.6z"/>
</g>
<g>
	<path d="M753.3,129.4h-22.4V79.7h-34.2L686,63.1h103.5v16.7h-36.1V129.4z"/>
	<path d="M861.6,79.7h-62.3V63.1h65.7c10.9,0,19.2,8.7,19.2,18.8V88c0,13.9-12.9,18.5-19.9,18.5l33.6,23h-34.4l-29.4-23h-12.2v23
		h-22.5V90.5h62.3V79.7z"/>
	<path d="M952.7,84.3h-23.5L943,63.1h18.5l43.3,66.4h-24.5l-12.5-19.7h-32.9l-12.2,19.7h-22.8l22.7-34.9h36.5L952.7,84.3z"/>
	<path d="M1057.1,63.1c22.3,0,48.9,2.7,48.9,33.2s-26.6,33.2-48.9,33.2h-45.4V63.1h44.9H1057.1z M1034.3,79.7v33h22.5
		c23.7,0,26-9.7,26-16.5c0-6.9-2.4-16.5-26-16.5H1034.3z"/>
	<path d="M1136.9,103v9.8h59.6v16.7h-80.8V63.1h80.1v16.7h-58.9v8.4h35V103H1136.9z"/>
</g>
</svg>
