<?xml version="1.0" encoding="utf-8"?>
<!-- Generator: Adobe Illustrator 23.0.0, SVG Export Plug-In . SVG Version: 6.00 Build 0)  -->
<svg version="1.1" id="Слой_1" xmlns="http://www.w3.org/2000/svg" xmlns:xlink="http://www.w3.org/1999/xlink" x="0px" y="0px"
	 viewBox="0 0 1126 193" style="enable-background:new 0 0 1126 193;" xml:space="preserve">
<g>
	<path d="M77.6,79.7h-40v33h40.2v-10.1h21.1v26.7H16.4V63.1h82.5v23.4H77.6V79.7z"/>
	<path d="M160.1,84.3h-23.5l13.9-21.3h18.5l43.3,66.4h-24.5l-12.5-19.7h-32.9l-12.2,19.7h-22.8L130,94.6h36.5L160.1,84.3z"/>
	<path d="M274.7,79.7h-36.5v8.4h59.2v41.3h-79.7v-16.7H277V103h-59.2V63.1h77.6v20.2h-20.6V79.7z"/>
	<path d="M335.3,63.1v25.1h47.6V63.1h22.5v66.4h-22.5V103h-47.6v26.5h-22.5V63.1H335.3z"/>
</g>
<g>
	<path d="M664.9,129.4h-22.4V79.7h-34.2l-10.8-16.7H701v16.7h-36.1V129.4z"/>
	<path d="M773.1,79.7h-62.3V63.1h65.7c10.9,0,19.2,8.7,19.2,18.8V88c0,13.9-12.9,18.5-19.9,18.5l33.6,23h-34.4l-29.4-23h-12.2v23
		h-22.5V90.5h62.3V79.7z"/>
	<path d="M864.2,84.3h-23.5l13.9-21.3h18.5l43.3,66.4h-24.5l-12.5-19.7h-32.9l-12.2,19.7h-22.8l22.7-34.9h36.5L864.2,84.3z"/>
	<path d="M968.7,63.1c22.3,0,48.9,2.7,48.9,33.2s-26.6,33.2-48.9,33.2h-45.4V63.1h44.9H968.7z M945.8,79.7v33h22.5
		c23.7,0,26-9.7,26-16.5c0-6.9-2.4-16.5-26-16.5H945.8z"/>
	<path d="M1048.5,103v9.8h59.6v16.7h-80.8V63.1h80.1v16.7h-58.9v8.4h35V103H1048.5z"/>
</g>
<path d="M552.2,125.5c0,10.3-3.4,19.2-10.1,26.6c-6.7,7.4-15.4,12.1-26.1,13.8v17.7c0,0.9-0.3,1.7-0.9,2.3c-0.6,0.6-1.4,0.9-2.3,0.9
	h-13.7c-0.9,0-1.6-0.3-2.3-1s-1-1.4-1-2.3v-17.7c-4.4-0.6-8.7-1.7-12.9-3.1c-4.1-1.5-7.6-3-10.3-4.5c-2.7-1.5-5.2-3.1-7.5-4.9
	c-2.3-1.7-3.9-3-4.7-3.8s-1.4-1.4-1.8-1.8c-1.1-1.4-1.2-2.8-0.2-4.1l10.4-13.7c0.5-0.7,1.2-1.1,2.3-1.2c1-0.1,1.8,0.2,2.4,0.9
	l0.2,0.2c7.6,6.7,15.8,10.9,24.6,12.6c2.5,0.5,5,0.8,7.5,0.8c5.5,0,10.3-1.4,14.4-4.3c4.1-2.9,6.2-7,6.2-12.3c0-1.9-0.5-3.7-1.5-5.4
	c-1-1.7-2.1-3.1-3.4-4.2c-1.2-1.1-3.2-2.4-5.9-3.8s-4.9-2.5-6.7-3.2c-1.8-0.8-4.4-1.9-8.1-3.3c-2.6-1.1-4.7-1.9-6.2-2.5
	c-1.5-0.6-3.6-1.5-6.2-2.7c-2.6-1.2-4.7-2.2-6.3-3.1s-3.5-2.1-5.7-3.6c-2.2-1.5-4-2.9-5.4-4.3c-1.4-1.4-2.8-3-4.4-5
	c-1.6-1.9-2.7-3.9-3.6-5.9c-0.8-2-1.6-4.2-2.1-6.7c-0.6-2.5-0.9-5.1-0.9-7.9c0-9.3,3.3-17.5,9.9-24.5c6.6-7,15.2-11.5,25.8-13.6V8.9
	c0-0.9,0.3-1.6,1-2.3s1.4-1,2.3-1h13.7c0.9,0,1.7,0.3,2.3,0.9c0.6,0.6,0.9,1.4,0.9,2.3v17.8c3.8,0.4,7.6,1.2,11.2,2.3
	c3.6,1.1,6.5,2.3,8.8,3.4c2.3,1.1,4.4,2.4,6.4,3.8s3.3,2.4,3.9,2.9s1.1,1,1.5,1.4c1.1,1.2,1.3,2.5,0.5,3.8l-8.2,14.8
	c-0.5,1-1.3,1.6-2.3,1.6c-0.9,0.2-1.9,0-2.7-0.7c-0.2-0.2-0.7-0.6-1.5-1.2c-0.8-0.6-2.1-1.5-3.9-2.7c-1.9-1.2-3.8-2.3-5.9-3.2
	c-2.1-1-4.6-1.9-7.5-2.6c-2.9-0.8-5.8-1.2-8.6-1.2c-6.4,0-11.6,1.4-15.7,4.3s-6.1,6.6-6.1,11.2c0,1.8,0.3,3.4,0.9,4.9s1.6,2.9,3,4.2
	c1.4,1.3,2.7,2.4,4,3.3s3.1,2,5.7,3.1s4.6,2.1,6.1,2.7c1.6,0.6,3.9,1.6,7.1,2.8c3.6,1.3,6.3,2.4,8.2,3.2c1.9,0.8,4.4,2,7.7,3.5
	c3.2,1.6,5.8,3,7.6,4.3c1.9,1.3,3.9,3,6.3,5.1s4.1,4.2,5.4,6.4c1.2,2.2,2.3,4.8,3.2,7.7C551.7,118.9,552.2,122.1,552.2,125.5z"/>
</svg>
